<?xml version="1.0" standalone="no"?>
<!DOCTYPE svg PUBLIC "-//W3C//DTD SVG 20010904//EN"
 "http://www.w3.org/TR/2001/REC-SVG-20010904/DTD/svg10.dtd">
<svg version="1.0" xmlns="http://www.w3.org/2000/svg"
 width="296.000000pt" height="296.000000pt" viewBox="0 0 296.000000 296.000000"
 preserveAspectRatio="xMidYMid meet">
<metadata>
Created by potrace 1.14, written by Peter Selinger 2001-2017
</metadata>
<g transform="translate(0.000000,296.000000) scale(0.100000,-0.100000)"
fill="#000000" stroke="none">
<path d="M1175 2372 l-41 -3 1 -242 0 -241 -225 -2 c-205 -1 -231 -3 -290 -23
-144 -50 -258 -145 -324 -270 -62 -119 -66 -148 -66 -601 l0 -405 420 0 420 0
0 102 0 103 165 0 164 0 3 -102 3 -103 363 0 362 -1 0 203 0 203 -100 0 -100
0 0 -103 0 -104 -165 1 -165 0 -1 55 c0 31 0 77 1 103 l1 48 -365 0 -366 0 0
-103 0 -103 -220 0 -220 0 0 100 c-1 267 1 506 5 527 9 45 55 125 97 168 24
24 72 58 108 74 l65 31 220 1 219 0 13 -45 c52 -182 209 -337 393 -386 52 -13
113 -17 315 -18 l250 -1 0 100 0 99 -235 1 c-129 1 -251 5 -270 9 -112 26
-208 112 -251 224 -20 52 -22 78 -24 280 l-2 222 31 1 c196 5 691 3 726 -3
113 -20 212 -98 264 -207 l31 -66 1 -645 c1 -355 2 -650 3 -656 1 -6 37 -10
99 -9 l97 0 -1 660 c0 602 -2 665 -18 720 -46 156 -162 292 -306 357 -104 48
-127 50 -598 51 -246 1 -465 1 -487 -1z"/>
</g>
</svg>
